<?xml version="1.0" encoding="UTF-8" standalone="no"?><svg xmlns="http://www.w3.org/2000/svg" xmlns:xlink="http://www.w3.org/1999/xlink" contentStyleType="text/css" height="185px" preserveAspectRatio="none" style="width:375px;height:185px;background:#FFFFFF;" version="1.1" viewBox="0 0 375 185" width="375px" zoomAndPan="magnify"><defs/><g><!--MD5=[3fd616f346a44cd59a91eb10b19e157c]
class User--><g id="elem_User"><rect codeLine="7" fill="#F0F8FF" height="171.2656" id="User" rx="2.5" ry="2.5" style="stroke:#0000FF;stroke-width:0.5;" width="132" x="7" y="7"/><ellipse cx="54.25" cy="23" fill="#F0F8FF" rx="11" ry="11" style="stroke:#0000FF;stroke-width:1.0;"/><path d="M58.7344,20.3906 L58.7344,25.2188 Q58.7344,26.7969 57.5938,27.9063 Q56.4688,29 54.875,29 Q54.0938,29 53.3906,28.7188 Q52.7031,28.4375 52.1406,27.9063 Q51.5938,27.3594 51.2813,26.7813 Q50.9844,26.1875 50.9844,25.2188 L50.9844,20.3906 Q50.4531,20.3906 50.1875,20.1563 Q49.9375,19.9063 49.9375,19.5313 Q49.9375,19.1563 50.1875,18.9219 Q50.4531,18.6875 51.0625,18.6875 L53.2969,18.6875 Q53.9219,18.6875 54.1719,18.9219 Q54.4375,19.1563 54.4375,19.5313 Q54.4375,19.9219 54.1719,20.1563 Q53.9219,20.3906 53.2969,20.3906 L52.6875,20.3906 L52.6875,25.3594 Q52.6875,26.125 53.3125,26.7188 Q53.9531,27.2969 54.8594,27.2969 Q55.4531,27.2969 55.9688,27.0156 Q56.5,26.7344 56.8281,26.1875 Q57.0313,25.8594 57.0313,25.3594 L57.0313,20.3906 L56.4219,20.3906 Q55.8125,20.3906 55.5469,20.1563 Q55.2813,19.9219 55.2813,19.5313 Q55.2813,19.1563 55.5469,18.9219 Q55.8125,18.6875 56.4219,18.6875 L58.6563,18.6875 Q59.2656,18.6875 59.5313,18.9219 Q59.7969,19.1563 59.7969,19.5313 Q59.7969,19.9063 59.5313,20.1563 Q59.2813,20.3906 58.7344,20.3906 Z " fill="#000000"/><text fill="#000000" font-family="sans-serif" font-size="14" lengthAdjust="spacing" textLength="29" x="74.75" y="28.7285">User</text><line style="stroke:#0000FF;stroke-width:0.5;" x1="8" x2="138" y1="39" y2="39"/><text fill="#000000" font-family="sans-serif" font-size="14" lengthAdjust="spacing" textLength="98" x="13" y="57.5332">-id: Integer [PK]</text><text fill="#000000" font-family="sans-serif" font-size="14" lengthAdjust="spacing" textLength="109" x="13" y="75.1426">-firstName: String</text><text fill="#000000" font-family="sans-serif" font-size="14" lengthAdjust="spacing" textLength="108" x="13" y="92.752">-lastName: String</text><text fill="#000000" font-family="sans-serif" font-size="14" lengthAdjust="spacing" textLength="113" x="13" y="110.3613">-username: String</text><text fill="#000000" font-family="sans-serif" font-size="14" lengthAdjust="spacing" textLength="83" x="13" y="127.9707">-email: String</text><text fill="#000000" font-family="sans-serif" font-size="14" lengthAdjust="spacing" textLength="120" x="13" y="145.5801">-profile_pic : Image</text><text fill="#000000" font-family="sans-serif" font-size="14" lengthAdjust="spacing" textLength="105" x="13" y="163.1895">-password: Hash</text><line style="stroke:#0000FF;stroke-width:0.5;" x1="8" x2="138" y1="170.2656" y2="170.2656"/></g><!--MD5=[aa1d33d14e455177dc6e1a499268c45e]
class CustomAnimation--><g id="elem_CustomAnimation"><rect codeLine="17" fill="#FFFFE0" height="136.0469" id="CustomAnimation" rx="2.5" ry="2.5" style="stroke:#000000;stroke-width:0.5;" width="169" x="199" y="24.5"/><ellipse cx="226.15" cy="40.5" fill="#FFFFE0" rx="11" ry="11" style="stroke:#000000;stroke-width:1.0;"/><path d="M228.9156,36.375 Q229.0719,36.1563 229.2594,36.0469 Q229.4469,35.9375 229.6656,35.9375 Q230.0406,35.9375 230.275,36.2031 Q230.5094,36.4531 230.5094,37.0625 L230.5094,38.5156 Q230.5094,39.125 230.275,39.3906 Q230.0406,39.6563 229.6656,39.6563 Q229.3219,39.6563 229.1188,39.4531 Q228.9156,39.2656 228.8063,38.75 Q228.7594,38.3906 228.5719,38.2031 Q228.2438,37.8281 227.6344,37.6094 Q227.025,37.3906 226.4,37.3906 Q225.6344,37.3906 224.9938,37.7188 Q224.3688,38.0469 223.8688,38.7969 Q223.3844,39.5469 223.3844,40.5781 L223.3844,41.6719 Q223.3844,42.9063 224.275,43.7344 Q225.1656,44.5469 226.7594,44.5469 Q227.6969,44.5469 228.3531,44.2969 Q228.7438,44.1406 229.1656,43.7031 Q229.4313,43.4375 229.5719,43.3594 Q229.7281,43.2813 229.9313,43.2813 Q230.2594,43.2813 230.5094,43.5469 Q230.775,43.7969 230.775,44.1406 Q230.775,44.4844 230.4313,44.8906 Q229.9313,45.4688 229.1344,45.7969 Q228.0563,46.25 226.7594,46.25 Q225.2438,46.25 224.0406,45.625 Q223.0563,45.125 222.3688,44.0625 Q221.6813,42.9844 221.6813,41.7031 L221.6813,40.5469 Q221.6813,39.2188 222.2906,38.0781 Q222.9156,36.9219 224.0094,36.3125 Q225.1031,35.6875 226.3375,35.6875 Q227.0719,35.6875 227.7125,35.8594 Q228.3688,36.0156 228.9156,36.375 Z " fill="#000000"/><text fill="#000000" font-family="sans-serif" font-size="14" lengthAdjust="spacing" textLength="110" x="242.85" y="46.2285">CustomAnimation</text><line style="stroke:#000000;stroke-width:0.5;" x1="200" x2="367" y1="56.5" y2="56.5"/><text fill="#000000" font-family="sans-serif" font-size="14" lengthAdjust="spacing" textLength="98" x="205" y="75.0332">-id: Integer [PK]</text><text fill="#000000" font-family="sans-serif" font-size="14" lengthAdjust="spacing" textLength="113" x="205" y="92.6426">-author: User [FK]</text><text fill="#000000" font-family="sans-serif" font-size="14" lengthAdjust="spacing" textLength="72" x="205" y="110.252">-title: String</text><text fill="#000000" font-family="sans-serif" font-size="14" lengthAdjust="spacing" textLength="157" x="205" y="127.8613">-date_last_created: Date</text><text fill="#000000" font-family="sans-serif" font-size="14" lengthAdjust="spacing" textLength="108" x="205" y="145.4707">-src_code: String</text><line style="stroke:#000000;stroke-width:0.5;" x1="200" x2="367" y1="152.5469" y2="152.5469"/></g><!--MD5=[97501d9272a2a4971ae30be9bb123ddd]
reverse link User to CustomAnimation--><g id="link_User_CustomAnimation"><path codeLine="25" d="M152.22,92.5 C167.4,92.5 183.37,92.5 198.72,92.5 " fill="none" id="User-backto-CustomAnimation" style="stroke:#181818;stroke-width:1.0;"/><polygon fill="#181818" points="139.11,92.5,145.11,96.5,151.11,92.5,145.11,88.5,139.11,92.5" style="stroke:#181818;stroke-width:1.0;"/><text fill="#000000" font-family="sans-serif" font-size="13" lengthAdjust="spacing" textLength="7" x="147.1587" y="106.9251">1</text><text fill="#000000" font-family="sans-serif" font-size="13" lengthAdjust="spacing" textLength="20" x="170.871" y="106.6702">0..*</text></g><!--MD5=[b0c7e2db591d31d31f8e8080747fa616]
@startuml anime_lib_team-91_UMLDatabaseDiagram

skinparam ClassAttributeIconSize 0
left to right direction



class User << (U, aliceblue) >> #aliceblue ##[bold]blue {
    - id: Integer [PK]
    - firstName: String
    - lastName: String
    - username: String
    - email: String
    - profile_pic : Image
    - password: Hash
}

class CustomAnimation << (C, LightYellow) >> #LightYellow ##[bold]Black {
    - id: Integer [PK]
    - author: User [FK]
    - title: String
    - date_last_created: Date
    - src_code: String
}

User "1" *- - "0..*" CustomAnimation

@enduml

PlantUML version 1.2022.5(Sat Apr 30 11:55:52 WAT 2022)
(GPL source distribution)
Java Runtime: Java(TM) SE Runtime Environment
JVM: Java HotSpot(TM) 64-Bit Server VM
Default Encoding: Cp1252
Language: en
Country: US
--></g></svg>